<svg width="512" height="512" viewBox="0 0 512 512" fill="none" xmlns="http://www.w3.org/2000/svg">
<g id="mountains 1" clip-path="url(#clip0)">
<g id="MountainBottom">
<path id="Vector" d="M511.392 439.118L315.353 68.039C313.413 64.367 308.16 64.352 306.199 68.012L107.402 439.091C105.552 442.545 108.054 446.724 111.972 446.724H506.808C510.713 446.724 513.217 442.57 511.392 439.118Z" fill="#6F9AC2"/>
</g>
<g id="MountainTop">
<path id="Vector_2" d="M409.716 246.667L366.885 297.03C364.796 299.412 361.078 299.38 359.031 296.963L292.111 217.96C290.076 215.558 286.387 215.509 284.289 217.856L248.891 257.468C246.721 259.896 242.877 259.746 240.902 257.157L219.739 229.402L306.2 68.016C308.161 64.356 313.415 64.371 315.355 68.043L409.716 246.667Z" fill="#E7EBEC"/>
</g>
</g>
<defs>
<clipPath id="clip0">
<rect width="511.999" height="511.999" fill="white"/>
</clipPath>
</defs>
</svg>
